<?xml version="1.0" encoding="UTF-8" standalone="no"?>
<svg
   xmlns:dc="http://purl.org/dc/elements/1.1/"
   xmlns:cc="http://creativecommons.org/ns#"
   xmlns:rdf="http://www.w3.org/1999/02/22-rdf-syntax-ns#"
   xmlns:svg="http://www.w3.org/2000/svg"
   xmlns="http://www.w3.org/2000/svg"
   viewBox="0 0 170.66666 170.66666"
   height="170.66666"
   width="170.66666"
   xml:space="preserve"
   id="svg2"
   version="1.1"><metadata
     id="metadata8"><rdf:RDF><cc:Work
         rdf:about=""><dc:format>image/svg+xml</dc:format><dc:type
           rdf:resource="http://purl.org/dc/dcmitype/StillImage" /><dc:title></dc:title></cc:Work></rdf:RDF></metadata><defs
     id="defs6" /><g
     transform="matrix(1.3333333,0,0,-1.3333333,-47.999999,218.66666)"
     id="g10"><path
       d="m 60.0785,62.3449 -3.4836,3.484 c -0.2324,0.232 -0.2324,0.609 0,0.8422 l 33.5637,33.5649 -33.0934,33.093 c -0.2324,0.233 -0.2324,0.61 0,0.842 l 3.4832,3.484 c 0.2325,0.232 0.6094,0.232 0.8418,0 L 94.659,104.386 c 2.2922,-2.292 2.2922,-6.009 0,-8.3008 L 60.9203,62.3449 c -0.2324,-0.232 -0.6094,-0.232 -0.8418,0"
       style="fill:#558dd2;fill-opacity:1;fill-rule:nonzero;stroke:none;stroke-width:0.1"
       id="path16" /><path
       d="M 143.133,62.1711 H 96.8113 c -0.2465,0 -0.4461,0.2 -0.4461,0.4461 v 5.2258 c 0,0.2461 0.1996,0.4449 0.4461,0.4449 h 46.3217 c 0.247,0 0.446,-0.1988 0.446,-0.4449 v -5.2258 c 0,-0.2461 -0.199,-0.4461 -0.446,-0.4461"
       style="fill:#558dd2;fill-opacity:1;fill-rule:nonzero;stroke:none;stroke-width:0.1"
       id="path18" /></g></svg>