<svg version="1" xmlns="http://www.w3.org/2000/svg" width="346.667" height="346.667" viewBox="0 0 260.000000 260.000000"><path d="M46.1 57.1c-4.2 4-4.3 4-2.5 6.1 1.1 1.1 16.2 16.4 33.7 33.8 17.4 17.5 31.7 32.2 31.7 32.7s-10 10.8-22.2 23c-12.3 12.2-27.6 27.6-34.1 34L41 198.6l4 4.2c2.3 2.3 4.4 4.2 4.8 4.2.4 0 16.8-16.1 36.4-35.8 38.2-38.3 38.5-38.6 35.8-45.7-1-2.6-69.5-72.5-71.1-72.5-.3 0-2.5 1.8-4.8 4.1zM122.7 194.8c-.3.6-.2 9.5.2 11.5 0 .4 21.6.6 47.9.5l47.7-.3v-12l-47.7-.2c-26.3 0-47.9.2-48.1.5z"/></svg>