<?xml version="1.0" encoding="utf-8"?>
<!-- Generator: Adobe Illustrator 22.1.0, SVG Export Plug-In . SVG Version: 6.00 Build 0)  -->
<svg version="1.1" id="Layer_1" xmlns="http://www.w3.org/2000/svg" xmlns:xlink="http://www.w3.org/1999/xlink" x="0px" y="0px"
	 viewBox="0 0 1523.6 1051.3" style="enable-background:new 0 0 1523.6 1051.3;" xml:space="preserve">
<style type="text/css">
	.st0{fill:#FFFFFF;}
</style>
<rect x="0" y="0" class="st0" width="1523.6" height="1051.3"/>
<path class="st0" d="M1433.1,397.5c-0.3-10.9,0.2-23.2-1.9-34c-3.8-19.3-32.2-20.9-48.6-24.8c-38.4-9.2-76.8-16.6-116.2-21.4
	c-30.6-3.7-61.2-8.3-92.1-9.7c-37.4-1.7-76.3,0.7-113.4,4.7c-64.7,7-127.6,23.7-191.7,33.8c-34.9,5.5-69.7,10.2-105.2,10.4
	c-0.8,0-0.8,0-2,0c-1.2,0-1.4,0-2.1,0c-35.4-0.2-70.4-4.8-105.3-10.4c-64.1-10.1-127.1-26.8-191.8-33.8c-37.2-4-76-6.3-113.5-4.7
	c-30.9,1.4-61.5,6-92.1,9.7c-39.4,4.8-77.8,12.2-116.2,21.4c-16.5,3.9-44.8,5.6-48.6,24.8c-2.1,10.7-1.6,23-1.9,34
	c-0.4,15.3-0.3,28.2,16.8,35.8c42.6,19,40.6,71.6,48.1,108c9.1,44.4,22.2,86.3,51.3,123.3c16.3,20.8,38.2,37.4,63.1,48.9
	c54,25,112.3,35.1,172.4,28.9c18.6-1.9,37.4-5.1,55.5-9.6c81.2-20.5,135-73,172.9-140.5c9.9-17.5,18.1-35.8,25.9-54.2
	c7.8-18.5,11.1-40.6,21.6-57.9c6.2-10.2,18.8-19.1,31.2-21.5c4.2-0.8,8.5-1,12.7-1c7.2,0,14.1,0.7,20.7,3.6
	c6.1,2.7,12,6.4,16.6,10.9c2.4,2.4,4.8,5.2,6.5,8c10.5,17.3,13.9,39.4,21.6,57.9c7.7,18.4,16,36.7,25.9,54.2
	c37.9,67.5,91.7,120,172.9,140.5c18,4.5,36.9,7.7,55.5,9.6c60.2,6.2,118.4-4,172.4-28.9c24.9-11.5,46.8-28.1,63.1-48.9
	c29-37,42.1-79,51.3-123.3c7.5-36.3,5.5-89,48.1-108C1433.4,425.7,1433.5,412.8,1433.1,397.5z M634.1,594.8c0,0-27.2,61.3-94,90.7
	c-21.1,9.3-44.4,16.5-67.3,21.2c-43.7,9.1-92,10.2-136,1.4c-71.8-14.2-127.7-66.6-144.6-132.1c-14.9-57.4-39.2-157.2,22-200.2
	c18.7-13.2,47.3-20.3,69.9-24.7c93.9-18.3,192.2-11.3,285.1,9c13.3,2.9,27.1,7.3,39.2,13.2c39,18.9,58.4,55.2,60.7,95
	C671.7,511.3,654.5,556.8,634.1,594.8z M1331.4,576.1c-17,65.5-72.9,117.9-144.7,132.1c-43.9,8.7-92.2,7.7-136-1.4
	c-22.8-4.8-46.1-11.9-67.3-21.2c-66.8-29.4-94-90.7-94-90.7c-20.4-38-37.6-83.6-35.1-126.5c2.3-39.7,21.7-76,60.7-95
	c12.1-5.9,25.9-10.3,39.2-13.2c92.9-20.4,191.1-27.4,285.1-9c22.6,4.4,51.2,11.6,69.9,24.7C1370.6,418.8,1346.2,518.6,1331.4,576.1z
	"/>
</svg>
